<svg width="63" height="63" viewBox="0 0 63 63" fill="currentColor" xmlns="http://www.w3.org/2000/svg">
  <g clip-path="url(#clip0_43_134)">
    <path d="M44.2829 32.508L31.5133 11.3478L18.7438 32.508L31.5133 53.6749L44.2829 32.508Z"
      fill="url(#paint0_linear_43_134)" />
    <path d="M31.5133 53.6749V11.3478L44.2829 32.508L31.5133 53.6749Z" fill="url(#paint1_linear_43_134)" />
    <path d="M42.0801 32.508L31.5134 27.515L20.9399 32.508L31.5134 37.5077L42.0801 32.508Z" fill="#6F4FF2" />
    <path d="M37.3474 32.5079L31.5134 29.7511L25.6726 32.5079L31.5134 35.2714L37.3474 32.5079Z"
      fill="url(#paint2_linear_43_134)" />
    <path
      d="M63 31.5C63 48.8954 48.8954 63 31.5 63C24.451 63 17.9427 60.6837 12.6894 56.7721C8.24375 53.4612 4.7126 48.9955 2.51648 43.829L4.59245 41.5394L5.68717 40.3312C9.3585 51.0648 19.5181 58.788 31.5 58.788C44.5098 58.788 55.3836 49.6831 58.1204 37.5009L53.1474 32.4746L59.7625 26.4069L62.1455 24.2174C62.6996 26.5537 63 28.9901 63 31.5Z"
      fill="url(#paint3_linear_43_134)" />
    <path
      d="M61.3379 21.4072L59.0817 23.5099L57.9002 24.6113C54.8496 12.8764 44.1894 4.20534 31.5 4.20534C17.7625 4.20534 6.40142 14.3582 4.49901 27.5617L9.85247 32.4746L4.87949 37.501C4.87949 37.501 4.87949 37.5143 4.87949 37.521L3.69132 38.7292L1.45514 41.0054C0.507272 38.0016 -0.00671387 34.8109 -0.00671387 31.5C-3.87239e-05 14.0979 14.1045 0 31.5 0C34.0432 0 36.513 0.300381 38.876 0.874444C49.4227 3.39765 57.9002 11.2409 61.3379 21.4072Z"
      fill="url(#paint4_linear_43_134)" />
    <path
      d="M4.88624 37.521L3.69806 38.7292C3.10398 36.4196 2.78357 33.9965 2.78357 31.5C2.78357 15.6399 15.6399 2.78357 31.5 2.78357C44.5833 2.78357 55.624 11.5347 59.0817 23.5099L57.9002 24.6113C54.8497 12.8764 44.1895 4.20537 31.5 4.20537C17.7626 4.20537 6.4015 14.3583 4.49908 27.5617L9.85255 32.4746L4.87956 37.501C4.87956 37.501 4.87956 37.5143 4.87956 37.521H4.88624Z"
      fill="url(#paint5_linear_43_134)" />
    <path
      d="M60.2098 31.5C60.2098 47.3535 47.3535 60.2098 31.5 60.2098C19.171 60.2098 8.65769 52.4399 4.59253 41.5394L5.68725 40.3312C9.35858 51.0648 19.5181 58.788 31.5 58.788C44.5099 58.788 55.3837 49.6831 58.1205 37.5009L53.1475 32.4746L59.7626 26.4069C60.0563 28.0623 60.2098 29.7645 60.2098 31.5Z"
      fill="url(#paint6_linear_43_134)" />
    <path d="M16.8946 32.5163L14.4025 30.0242L11.9103 32.5163L14.4025 35.0085L16.8946 32.5163Z"
      fill="url(#paint7_linear_43_134)" />
    <path d="M51.2225 32.514L48.7303 30.0219L46.2382 32.514L48.7303 35.0062L51.2225 32.514Z"
      fill="url(#paint8_linear_43_134)" />
    <g clip-path="url(#clip1_43_134)">
      <path d="M44.2829 32.508L31.5133 11.3478L18.7438 32.508L31.5133 53.6749L44.2829 32.508Z"
        fill="url(#paint9_linear_43_134)" />
      <path d="M31.5133 53.6749V11.3478L44.2829 32.508L31.5133 53.6749Z" fill="url(#paint10_linear_43_134)" />
      <path d="M42.0801 32.508L31.5134 27.515L20.9399 32.508L31.5134 37.5077L42.0801 32.508Z" fill="#6F4FF2" />
      <path d="M37.3474 32.5079L31.5134 29.7511L25.6726 32.5079L31.5134 35.2714L37.3474 32.5079Z"
        fill="url(#paint11_linear_43_134)" />
      <path
        d="M63 31.5C63 48.8954 48.8954 63 31.5 63C24.451 63 17.9427 60.6837 12.6894 56.7721C8.24375 53.4612 4.7126 48.9955 2.51648 43.829L4.59245 41.5394L5.68717 40.3312C9.3585 51.0648 19.5181 58.788 31.5 58.788C44.5098 58.788 55.3836 49.6831 58.1204 37.5009L53.1474 32.4746L59.7625 26.4069L62.1455 24.2174C62.6996 26.5537 63 28.9901 63 31.5Z"
        fill="url(#paint12_linear_43_134)" />
      <path
        d="M61.3379 21.4072L59.0817 23.5099L57.9002 24.6113C54.8496 12.8764 44.1894 4.20534 31.5 4.20534C17.7625 4.20534 6.40142 14.3582 4.49901 27.5617L9.85247 32.4746L4.87949 37.501C4.87949 37.501 4.87949 37.5143 4.87949 37.521L3.69132 38.7292L1.45514 41.0054C0.507272 38.0016 -0.00671387 34.8109 -0.00671387 31.5C-3.87239e-05 14.0979 14.1045 0 31.5 0C34.0432 0 36.513 0.300381 38.876 0.874444C49.4227 3.39765 57.9002 11.2409 61.3379 21.4072Z"
        fill="url(#paint13_linear_43_134)" />
      <path
        d="M4.88624 37.521L3.69806 38.7292C3.10398 36.4196 2.78357 33.9965 2.78357 31.5C2.78357 15.6399 15.6399 2.78357 31.5 2.78357C44.5833 2.78357 55.624 11.5347 59.0817 23.5099L57.9002 24.6113C54.8497 12.8764 44.1895 4.20537 31.5 4.20537C17.7626 4.20537 6.4015 14.3583 4.49908 27.5617L9.85255 32.4746L4.87956 37.501C4.87956 37.501 4.87956 37.5143 4.87956 37.521H4.88624Z"
        fill="url(#paint14_linear_43_134)" />
      <path
        d="M60.2098 31.5C60.2098 47.3535 47.3535 60.2098 31.5 60.2098C19.171 60.2098 8.65769 52.4399 4.59253 41.5394L5.68725 40.3312C9.35858 51.0648 19.5181 58.788 31.5 58.788C44.5099 58.788 55.3837 49.6831 58.1205 37.5009L53.1475 32.4746L59.7626 26.4069C60.0563 28.0623 60.2098 29.7645 60.2098 31.5Z"
        fill="url(#paint15_linear_43_134)" />
      <path d="M16.8946 32.5163L14.4025 30.0242L11.9103 32.5163L14.4025 35.0085L16.8946 32.5163Z"
        fill="url(#paint16_linear_43_134)" />
      <path d="M51.2225 32.514L48.7303 30.0219L46.2382 32.514L48.7303 35.0062L51.2225 32.514Z"
        fill="url(#paint17_linear_43_134)" />
    </g>
  </g>
  <defs>
    <linearGradient id="paint0_linear_43_134" x1="29.0302" y1="38.7159" x2="37.2072" y2="18.2699"
      gradientUnits="userSpaceOnUse">
      <stop stop-color="#B63AE4" />
      <stop offset="1" stop-color="#23E0FF" />
    </linearGradient>
    <linearGradient id="paint1_linear_43_134" x1="41.2523" y1="32.508" x2="27.7218" y2="32.508"
      gradientUnits="userSpaceOnUse">
      <stop stop-color="#FFE496" stop-opacity="0" />
      <stop offset="0.94" stop-color="#EFEC53" />
    </linearGradient>
    <linearGradient id="paint2_linear_43_134" x1="25.6726" y1="32.5079" x2="37.3474" y2="32.5079"
      gradientUnits="userSpaceOnUse">
      <stop stop-color="#B63AE4" />
      <stop offset="1" stop-color="#23E0FF" />
    </linearGradient>
    <linearGradient id="paint3_linear_43_134" x1="32.7549" y1="-31.5467" x2="32.7549" y2="131.707"
      gradientUnits="userSpaceOnUse">
      <stop stop-color="#EB3C9C" />
      <stop offset="1" stop-color="#FFCD35" />
    </linearGradient>
    <linearGradient id="paint4_linear_43_134" x1="30.6656" y1="-58.9615" x2="30.6656" y2="113.651"
      gradientUnits="userSpaceOnUse">
      <stop stop-color="#EB3C9C" />
      <stop offset="1" stop-color="#FFCD35" />
    </linearGradient>
    <linearGradient id="paint5_linear_43_134" x1="47.487" y1="10.9272" x2="6.41485" y2="30.0048"
      gradientUnits="userSpaceOnUse">
      <stop stop-color="#FFE496" stop-opacity="0" />
      <stop offset="0.94" stop-color="#EFEC53" />
    </linearGradient>
    <linearGradient id="paint6_linear_43_134" x1="15.6933" y1="53.6615" x2="55.3103" y2="32.835"
      gradientUnits="userSpaceOnUse">
      <stop stop-color="#FFE496" stop-opacity="0" />
      <stop offset="0.94" stop-color="#EFEC53" />
    </linearGradient>
    <linearGradient id="paint7_linear_43_134" x1="14.4066" y1="34.9444" x2="14.4066" y2="30.432"
      gradientUnits="userSpaceOnUse">
      <stop stop-color="#B63AE4" />
      <stop offset="1" stop-color="#23E0FF" />
    </linearGradient>
    <linearGradient id="paint8_linear_43_134" x1="48.7359" y1="34.9468" x2="48.7359" y2="30.4344"
      gradientUnits="userSpaceOnUse">
      <stop stop-color="#B63AE4" />
      <stop offset="1" stop-color="#23E0FF" />
    </linearGradient>
    <linearGradient id="paint9_linear_43_134" x1="29.0302" y1="38.7159" x2="37.2072" y2="18.2699"
      gradientUnits="userSpaceOnUse">
      <stop stop-color="#B63AE4" />
      <stop offset="1" stop-color="#23E0FF" />
    </linearGradient>
    <linearGradient id="paint10_linear_43_134" x1="41.2523" y1="32.508" x2="27.7218" y2="32.508"
      gradientUnits="userSpaceOnUse">
      <stop stop-color="#FFE496" stop-opacity="0" />
      <stop offset="0.94" stop-color="#EFEC53" />
    </linearGradient>
    <linearGradient id="paint11_linear_43_134" x1="25.6726" y1="32.5079" x2="37.3474" y2="32.5079"
      gradientUnits="userSpaceOnUse">
      <stop stop-color="#B63AE4" />
      <stop offset="1" stop-color="#23E0FF" />
    </linearGradient>
    <linearGradient id="paint12_linear_43_134" x1="32.7549" y1="-31.5467" x2="32.7549" y2="131.707"
      gradientUnits="userSpaceOnUse">
      <stop stop-color="#EB3C9C" />
      <stop offset="1" stop-color="#FFCD35" />
    </linearGradient>
    <linearGradient id="paint13_linear_43_134" x1="30.6656" y1="-58.9615" x2="30.6656" y2="113.651"
      gradientUnits="userSpaceOnUse">
      <stop stop-color="#EB3C9C" />
      <stop offset="1" stop-color="#FFCD35" />
    </linearGradient>
    <linearGradient id="paint14_linear_43_134" x1="47.487" y1="10.9272" x2="6.41485" y2="30.0048"
      gradientUnits="userSpaceOnUse">
      <stop stop-color="#FFE496" stop-opacity="0" />
      <stop offset="0.94" stop-color="#EFEC53" />
    </linearGradient>
    <linearGradient id="paint15_linear_43_134" x1="15.6933" y1="53.6615" x2="55.3103" y2="32.835"
      gradientUnits="userSpaceOnUse">
      <stop stop-color="#FFE496" stop-opacity="0" />
      <stop offset="0.94" stop-color="#EFEC53" />
    </linearGradient>
    <linearGradient id="paint16_linear_43_134" x1="14.4066" y1="34.9444" x2="14.4066" y2="30.432"
      gradientUnits="userSpaceOnUse">
      <stop stop-color="#B63AE4" />
      <stop offset="1" stop-color="#23E0FF" />
    </linearGradient>
    <linearGradient id="paint17_linear_43_134" x1="48.7359" y1="34.9468" x2="48.7359" y2="30.4344"
      gradientUnits="userSpaceOnUse">
      <stop stop-color="#B63AE4" />
      <stop offset="1" stop-color="#23E0FF" />
    </linearGradient>
    <clipPath id="clip0_43_134">
      <rect width="63" height="63" fill="white" />
    </clipPath>
    <clipPath id="clip1_43_134">
      <rect width="63" height="63" fill="white" />
    </clipPath>
  </defs>
</svg>