<svg width="48" height="48" viewBox="0 0 48 48" fill="currentColor" xmlns="http://www.w3.org/2000/svg">
  <g clip-path="url(#clip0_143_3949)">
    <path d="M33.7394 24.7679L24.0102 8.64587L14.281 24.7679L24.0102 40.8951L33.7394 24.7679Z"
      fill="url(#paint0_linear_143_3949)" />
    <path d="M24.0101 40.8951V8.64587L33.7393 24.7679L24.0101 40.8951Z" fill="url(#paint1_linear_143_3949)" />
    <path d="M32.061 24.7679L24.0102 20.9637L15.9542 24.7679L24.0102 28.5772L32.061 24.7679Z" fill="#6F4FF2" />
    <path d="M28.4552 24.7679L24.0102 22.6675L19.5601 24.7679L24.0102 26.8735L28.4552 24.7679Z"
      fill="url(#paint2_linear_143_3949)" />
    <path
      d="M48 24C48 37.2537 37.2537 48 24 48C18.6294 48 13.6707 46.2353 9.66815 43.255C6.28099 40.7324 3.59059 37.33 1.91736 33.3936L3.49905 31.6491L4.33312 30.7286C7.13033 38.9066 14.8709 44.7909 24 44.7909C33.9123 44.7909 42.1971 37.8538 44.2823 28.5722L40.4933 24.7426L45.5334 20.1196L47.349 18.4514C47.7711 20.2315 48 22.0878 48 24Z"
      fill="url(#paint3_linear_143_3949)" />
    <path
      d="M46.7336 16.3102L45.0146 17.9123L44.1144 18.7514C41.7902 9.81055 33.6681 3.20407 24 3.20407C13.5333 3.20407 4.87726 10.9396 3.4278 20.9994L7.50663 24.7425L3.7177 28.5722C3.7177 28.5722 3.7177 28.5823 3.7177 28.5874L2.81242 29.5079L1.10867 31.2422C0.386481 28.9536 -0.00512695 26.5226 -0.00512695 24C-4.11305e-05 10.7413 10.7463 0 24 0C25.9377 0 27.8194 0.228862 29.6198 0.666243C37.6554 2.58868 44.1144 8.56453 46.7336 16.3102Z"
      fill="url(#paint4_linear_143_3949)" />
    <path
      d="M3.72276 28.5874L2.81749 29.5079C2.36485 27.7482 2.12073 25.902 2.12073 23.9999C2.12073 11.916 11.916 2.12073 23.9999 2.12073C33.9682 2.12073 42.3801 8.78824 45.0146 17.9122L44.1144 18.7514C41.7901 9.81049 33.6681 3.20401 23.9999 3.20401C13.5333 3.20401 4.87724 10.9395 3.42778 20.9993L7.50661 24.7425L3.71768 28.5721C3.71768 28.5721 3.71768 28.5823 3.71768 28.5874H3.72276Z"
      fill="url(#paint5_linear_143_3949)" />
    <path
      d="M45.8741 24C45.8741 36.0788 36.0788 45.8741 24 45.8741C14.6065 45.8741 6.59629 39.9542 3.49902 31.6491L4.3331 30.7285C7.1303 38.9065 14.8709 44.7908 24 44.7908C33.9122 44.7908 42.1971 37.8538 44.2822 28.5721L40.4933 24.7425L45.5334 20.1195C45.7571 21.3808 45.8741 22.6777 45.8741 24Z"
      fill="url(#paint6_linear_143_3949)" />
    <path d="M12.8721 24.7743L10.9733 22.8755L9.07446 24.7743L10.9733 26.6731L12.8721 24.7743Z"
      fill="url(#paint7_linear_143_3949)" />
    <path d="M39.0267 24.7726L37.1279 22.8738L35.2291 24.7726L37.1279 26.6714L39.0267 24.7726Z"
      fill="url(#paint8_linear_143_3949)" />
    <g clip-path="url(#clip1_143_3949)">
      <path d="M33.7394 24.7679L24.0102 8.64587L14.281 24.7679L24.0102 40.8951L33.7394 24.7679Z"
        fill="url(#paint9_linear_143_3949)" />
      <path d="M24.0101 40.8951V8.64587L33.7393 24.7679L24.0101 40.8951Z" fill="url(#paint10_linear_143_3949)" />
      <path d="M32.061 24.7679L24.0102 20.9637L15.9542 24.7679L24.0102 28.5772L32.061 24.7679Z" fill="#6F4FF2" />
      <path d="M28.4552 24.7679L24.0102 22.6675L19.5601 24.7679L24.0102 26.8735L28.4552 24.7679Z"
        fill="url(#paint11_linear_143_3949)" />
      <path
        d="M48 24C48 37.2537 37.2537 48 24 48C18.6294 48 13.6707 46.2353 9.66815 43.255C6.28099 40.7324 3.59059 37.33 1.91736 33.3936L3.49905 31.6491L4.33312 30.7286C7.13033 38.9066 14.8709 44.7909 24 44.7909C33.9123 44.7909 42.1971 37.8538 44.2823 28.5722L40.4933 24.7426L45.5334 20.1196L47.349 18.4514C47.7711 20.2315 48 22.0878 48 24Z"
        fill="url(#paint12_linear_143_3949)" />
      <path
        d="M46.7336 16.3102L45.0146 17.9123L44.1144 18.7514C41.7902 9.81055 33.6681 3.20407 24 3.20407C13.5333 3.20407 4.87726 10.9396 3.4278 20.9994L7.50663 24.7425L3.7177 28.5722C3.7177 28.5722 3.7177 28.5823 3.7177 28.5874L2.81242 29.5079L1.10867 31.2422C0.386481 28.9536 -0.00512695 26.5226 -0.00512695 24C-4.11305e-05 10.7413 10.7463 0 24 0C25.9377 0 27.8194 0.228862 29.6198 0.666243C37.6554 2.58868 44.1144 8.56453 46.7336 16.3102Z"
        fill="url(#paint13_linear_143_3949)" />
      <path
        d="M3.72276 28.5874L2.81749 29.5079C2.36485 27.7482 2.12073 25.902 2.12073 23.9999C2.12073 11.916 11.916 2.12073 23.9999 2.12073C33.9682 2.12073 42.3801 8.78824 45.0146 17.9122L44.1144 18.7514C41.7901 9.81049 33.6681 3.20401 23.9999 3.20401C13.5333 3.20401 4.87724 10.9395 3.42778 20.9993L7.50661 24.7425L3.71768 28.5721C3.71768 28.5721 3.71768 28.5823 3.71768 28.5874H3.72276Z"
        fill="url(#paint14_linear_143_3949)" />
      <path
        d="M45.8741 24C45.8741 36.0788 36.0788 45.8741 24 45.8741C14.6065 45.8741 6.59629 39.9542 3.49902 31.6491L4.3331 30.7285C7.1303 38.9065 14.8709 44.7908 24 44.7908C33.9122 44.7908 42.1971 37.8538 44.2822 28.5721L40.4933 24.7425L45.5334 20.1195C45.7571 21.3808 45.8741 22.6777 45.8741 24Z"
        fill="url(#paint15_linear_143_3949)" />
      <path d="M12.8721 24.7743L10.9733 22.8755L9.07446 24.7743L10.9733 26.6731L12.8721 24.7743Z"
        fill="url(#paint16_linear_143_3949)" />
      <path d="M39.0267 24.7726L37.1279 22.8738L35.2291 24.7726L37.1279 26.6714L39.0267 24.7726Z"
        fill="url(#paint17_linear_143_3949)" />
    </g>
  </g>
  <defs>
    <linearGradient id="paint0_linear_143_3949" x1="22.1183" y1="29.4978" x2="28.3484" y2="13.9199"
      gradientUnits="userSpaceOnUse">
      <stop stop-color="#B63AE4" />
      <stop offset="1" stop-color="#23E0FF" />
    </linearGradient>
    <linearGradient id="paint1_linear_143_3949" x1="31.4303" y1="24.7679" x2="21.1214" y2="24.7679"
      gradientUnits="userSpaceOnUse">
      <stop stop-color="#FFE496" stop-opacity="0" />
      <stop offset="0.94" stop-color="#EFEC53" />
    </linearGradient>
    <linearGradient id="paint2_linear_143_3949" x1="19.5601" y1="24.7679" x2="28.4552" y2="24.7679"
      gradientUnits="userSpaceOnUse">
      <stop stop-color="#B63AE4" />
      <stop offset="1" stop-color="#23E0FF" />
    </linearGradient>
    <linearGradient id="paint3_linear_143_3949" x1="24.9561" y1="-24.0356" x2="24.9561" y2="100.348"
      gradientUnits="userSpaceOnUse">
      <stop stop-color="#EB3C9C" />
      <stop offset="1" stop-color="#FFCD35" />
    </linearGradient>
    <linearGradient id="paint4_linear_143_3949" x1="23.3642" y1="-44.9231" x2="23.3642" y2="86.5912"
      gradientUnits="userSpaceOnUse">
      <stop stop-color="#EB3C9C" />
      <stop offset="1" stop-color="#FFCD35" />
    </linearGradient>
    <linearGradient id="paint5_linear_143_3949" x1="36.1805" y1="8.32543" x2="4.88742" y2="22.8607"
      gradientUnits="userSpaceOnUse">
      <stop stop-color="#FFE496" stop-opacity="0" />
      <stop offset="0.94" stop-color="#EFEC53" />
    </linearGradient>
    <linearGradient id="paint6_linear_143_3949" x1="11.9567" y1="40.8849" x2="42.1411" y2="25.0172"
      gradientUnits="userSpaceOnUse">
      <stop stop-color="#FFE496" stop-opacity="0" />
      <stop offset="0.94" stop-color="#EFEC53" />
    </linearGradient>
    <linearGradient id="paint7_linear_143_3949" x1="10.9764" y1="26.6242" x2="10.9764" y2="23.1862"
      gradientUnits="userSpaceOnUse">
      <stop stop-color="#B63AE4" />
      <stop offset="1" stop-color="#23E0FF" />
    </linearGradient>
    <linearGradient id="paint8_linear_143_3949" x1="37.1321" y1="26.6261" x2="37.1321" y2="23.1881"
      gradientUnits="userSpaceOnUse">
      <stop stop-color="#B63AE4" />
      <stop offset="1" stop-color="#23E0FF" />
    </linearGradient>
    <linearGradient id="paint9_linear_143_3949" x1="22.1183" y1="29.4978" x2="28.3484" y2="13.9199"
      gradientUnits="userSpaceOnUse">
      <stop stop-color="#B63AE4" />
      <stop offset="1" stop-color="#23E0FF" />
    </linearGradient>
    <linearGradient id="paint10_linear_143_3949" x1="31.4303" y1="24.7679" x2="21.1214" y2="24.7679"
      gradientUnits="userSpaceOnUse">
      <stop stop-color="#FFE496" stop-opacity="0" />
      <stop offset="0.94" stop-color="#EFEC53" />
    </linearGradient>
    <linearGradient id="paint11_linear_143_3949" x1="19.5601" y1="24.7679" x2="28.4552" y2="24.7679"
      gradientUnits="userSpaceOnUse">
      <stop stop-color="#B63AE4" />
      <stop offset="1" stop-color="#23E0FF" />
    </linearGradient>
    <linearGradient id="paint12_linear_143_3949" x1="24.9561" y1="-24.0356" x2="24.9561" y2="100.348"
      gradientUnits="userSpaceOnUse">
      <stop stop-color="#EB3C9C" />
      <stop offset="1" stop-color="#FFCD35" />
    </linearGradient>
    <linearGradient id="paint13_linear_143_3949" x1="23.3642" y1="-44.9231" x2="23.3642" y2="86.5912"
      gradientUnits="userSpaceOnUse">
      <stop stop-color="#EB3C9C" />
      <stop offset="1" stop-color="#FFCD35" />
    </linearGradient>
    <linearGradient id="paint14_linear_143_3949" x1="36.1805" y1="8.32543" x2="4.88742" y2="22.8607"
      gradientUnits="userSpaceOnUse">
      <stop stop-color="#FFE496" stop-opacity="0" />
      <stop offset="0.94" stop-color="#EFEC53" />
    </linearGradient>
    <linearGradient id="paint15_linear_143_3949" x1="11.9567" y1="40.8849" x2="42.1411" y2="25.0172"
      gradientUnits="userSpaceOnUse">
      <stop stop-color="#FFE496" stop-opacity="0" />
      <stop offset="0.94" stop-color="#EFEC53" />
    </linearGradient>
    <linearGradient id="paint16_linear_143_3949" x1="10.9764" y1="26.6242" x2="10.9764" y2="23.1862"
      gradientUnits="userSpaceOnUse">
      <stop stop-color="#B63AE4" />
      <stop offset="1" stop-color="#23E0FF" />
    </linearGradient>
    <linearGradient id="paint17_linear_143_3949" x1="37.1321" y1="26.6261" x2="37.1321" y2="23.1881"
      gradientUnits="userSpaceOnUse">
      <stop stop-color="#B63AE4" />
      <stop offset="1" stop-color="#23E0FF" />
    </linearGradient>
    <clipPath id="clip0_143_3949">
      <rect width="48" height="48" fill="white" />
    </clipPath>
    <clipPath id="clip1_143_3949">
      <rect width="48" height="48" fill="white" />
    </clipPath>
  </defs>
</svg>