<svg width="42" height="42" viewBox="0 0 42 42" fill="currentColor" xmlns="http://www.w3.org/2000/svg">
  <g clip-path="url(#clip0_84_1900)">
    <path
      d="M31.5 31.5C37.299 25.701 37.299 16.299 31.5 10.5C25.701 4.70101 16.299 4.70101 10.5 10.5C4.70101 16.299 4.70101 25.701 10.5 31.5C16.299 37.299 25.701 37.299 31.5 31.5Z"
      fill="#866AFA" />
    <path fill-rule="evenodd" clip-rule="evenodd"
      d="M27.9387 14H14.8946C12.6935 14 11 15.7044 11 17.9197V25.0803C11 27.2956 12.6935 29 14.8946 29H27.9349C30.136 29 32 27.2956 32 25.0803V17.9197C32 15.7044 30.136 14 27.9349 14H27.9387ZM24.8889 21.5L19.3007 18.2628V24.741L24.8889 21.5038V21.5Z"
      fill="white" />
  </g>
  <defs>
    <clipPath id="clip0_84_1900">
      <rect width="42" height="42" fill="white" />
    </clipPath>
  </defs>
</svg>