<svg width="42" height="42" viewBox="0 0 42 42" fill="none" xmlns="http://www.w3.org/2000/svg">
<g clip-path="url(#clip0_84_1896)">
<path d="M31.5 31.5C37.299 25.701 37.299 16.299 31.5 10.5C25.701 4.70101 16.299 4.70101 10.5 10.5C4.70101 16.299 4.70101 25.701 10.5 31.5C16.299 37.299 25.701 37.299 31.5 31.5Z" fill="#866AFA"/>
<path fill-rule="evenodd" clip-rule="evenodd" d="M16.7455 11.7861H25.252C27.9864 11.7861 30.2335 14.0331 30.2335 16.7676V25.2325C30.2335 27.9669 27.9864 30.2139 25.252 30.2139H16.7455C14.011 30.2139 11.764 27.9669 11.764 25.2325V16.7676C11.764 14.0331 14.011 11.7861 16.7455 11.7861ZM25.9594 15.0051C26.533 15.0051 27.0175 15.4895 27.0175 16.0632C27.0175 16.6368 26.533 17.1213 25.9594 17.1213C25.3412 17.1213 24.9013 16.6368 24.9013 16.0632C24.9013 15.4895 25.3412 15.0051 25.9594 15.0051ZM20.9779 15.974H21.0225C23.757 15.974 26.0486 18.2656 26.0486 21C26.0486 23.7761 23.757 26.0261 21.0225 26.0261H20.9779C18.2435 26.0261 15.9965 23.7791 15.9965 21C15.9965 18.2656 18.2435 15.974 20.9779 15.974ZM20.9779 17.6919H21.0225C22.8296 17.6919 24.3276 19.1899 24.3276 20.9971C24.3276 22.8488 22.8296 24.3468 21.0225 24.3468H20.9779C19.1708 24.3468 17.6728 22.8488 17.6728 20.9971C17.6728 19.1899 19.1708 17.6919 20.9779 17.6919ZM16.7901 13.3733H25.2104C27.1067 13.3733 28.6493 14.9159 28.6493 16.8122V25.1879C28.6493 27.0842 27.1067 28.6268 25.2104 28.6268H16.7901C14.8938 28.6268 13.3512 27.0842 13.3512 25.1879V16.8122C13.3512 14.9159 14.8938 13.3733 16.7901 13.3733Z" fill="white"/>
</g>
<defs>
<clipPath id="clip0_84_1896">
<rect width="42" height="42" fill="white"/>
</clipPath>
</defs>
</svg>
