<svg width="42" height="42" viewBox="0 0 42 42" fill="none" xmlns="http://www.w3.org/2000/svg">
<g clip-path="url(#clip0_84_1899)">
<path d="M31.5 31.5C37.299 25.701 37.299 16.299 31.5 10.5C25.701 4.70101 16.299 4.70101 10.5 10.5C4.70101 16.299 4.70101 25.701 10.5 31.5C16.299 37.299 25.701 37.299 31.5 31.5Z" fill="#866AFA"/>
<path fill-rule="evenodd" clip-rule="evenodd" d="M13.1175 18.3061H16.3751V29.2439H13.1175V18.3061ZM14.7255 12.757C15.8103 12.757 16.6961 13.6427 16.6961 14.7275C16.6961 15.8124 15.8103 16.6981 14.7255 16.6981C13.6406 16.6981 12.7965 15.8124 12.7965 14.7275C12.7965 13.6427 13.6406 12.757 14.7255 12.757ZM18.304 18.3061H21.52V19.8338C22.2036 18.8292 23.3301 18.1842 24.617 18.1842H25.5028C27.5536 18.1842 29.2032 19.8725 29.2032 21.8847V29.2439H25.9873V28.2393V23.3321C25.9456 22.0868 25.1015 21.1208 23.8562 21.1208C22.6108 21.1208 21.5646 22.0868 21.523 23.3321V29.2439H18.307V18.3061H18.304Z" fill="white"/>
</g>
<defs>
<clipPath id="clip0_84_1899">
<rect width="42" height="42" fill="white"/>
</clipPath>
</defs>
</svg>
