<svg width="42" height="42" viewBox="0 0 42 42" fill="none" xmlns="http://www.w3.org/2000/svg">
<g clip-path="url(#clip0_84_1898)">
<path d="M31.5 31.5C37.299 25.701 37.299 16.299 31.5 10.5C25.701 4.70101 16.299 4.70101 10.5 10.5C4.70101 16.299 4.70101 25.701 10.5 31.5C16.299 37.299 25.701 37.299 31.5 31.5Z" fill="#866AFA"/>
<path fill-rule="evenodd" clip-rule="evenodd" d="M20.8656 17.9225C20.0689 13.7926 25.1112 11.3369 28.0822 14.3157C28.0822 14.3157 29.41 13.9495 30.5751 13.2171C30.5751 13.2171 30.1502 14.6297 28.7195 15.5158C28.7195 15.5158 30.3129 15.3065 31 14.888C31 14.888 30.3095 16.3006 29.0382 16.8205C29.7286 26.2803 19.3817 32.0288 11 27.3267C11 27.3267 15.1394 27.536 16.8888 25.5511C16.8888 25.5511 14.3427 25.7604 13.068 22.7292C13.068 22.7292 14.0241 23.0954 14.9768 22.6246C14.9768 22.6246 12.0058 22.1537 11.7402 18.6516C11.7402 18.6516 12.6963 19.3841 13.7552 19.1225C13.7552 19.1225 10.4656 17.19 12.3212 13.6879C12.3212 13.6879 15.8232 18.0794 20.8622 17.9225H20.8656Z" fill="white"/>
</g>
<defs>
<clipPath id="clip0_84_1898">
<rect width="42" height="42" fill="white"/>
</clipPath>
</defs>
</svg>
